<svg width="40" height="40" viewBox="0 0 40 40" fill="none" xmlns="http://www.w3.org/2000/svg">
<rect x="0.5" y="0.5" width="39" height="39" rx="19.5" fill="white"/>
<rect x="0.5" y="0.5" width="39" height="39" rx="19.5" stroke="#E7E9EC"/>
<g clip-path="url(#clip0_1102_2745)">
<path fill-rule="evenodd" clip-rule="evenodd" d="M14.1502 19.3865L18.0677 21.2849C18.2326 21.365 18.3689 21.4937 18.4583 21.6538C18.5478 21.8138 18.5859 21.9975 18.5677 22.1799C18.5484 22.3625 18.4732 22.5347 18.3524 22.6729C18.2316 22.8112 18.071 22.9088 17.8927 22.9524L13.661 23.9999C13.4739 24.0451 13.2774 24.0298 13.0996 23.9561C12.9218 23.8824 12.772 23.7542 12.6718 23.5899C12.6069 23.4804 12.5655 23.3587 12.5502 23.2324C12.4211 22.1099 12.5418 20.9728 12.9035 19.9024C12.9445 19.7819 13.0107 19.6717 13.0978 19.579C13.1849 19.4863 13.2909 19.4133 13.4085 19.3649C13.5266 19.3168 13.6534 19.2939 13.7808 19.2977C13.9082 19.3014 14.0334 19.3317 14.1485 19.3865M15.7185 27.399L18.6352 24.1815C18.7588 24.0449 18.9214 23.9495 19.1009 23.9082C19.2805 23.8669 19.4685 23.8818 19.6393 23.9507C19.8091 24.0197 19.9537 24.1388 20.0539 24.2922C20.1541 24.4456 20.2052 24.6259 20.2002 24.809L20.0477 29.1382C20.0431 29.2655 20.0112 29.3904 19.9543 29.5044C19.8974 29.6184 19.8167 29.7189 19.7177 29.799C19.6183 29.8796 19.5029 29.9381 19.3792 29.9706C19.2555 30.003 19.1263 30.0088 19.0002 29.9874C17.8804 29.8003 16.8147 29.3721 15.8768 28.7324C15.7715 28.6606 15.6828 28.5671 15.6167 28.4581C15.5505 28.3492 15.5085 28.2273 15.4935 28.1007C15.4788 27.9745 15.4913 27.8466 15.5301 27.7255C15.5689 27.6045 15.6332 27.4932 15.7185 27.399ZM22.6335 23.1165L26.7793 24.4549C26.9005 24.4942 27.012 24.5588 27.1064 24.6444C27.2008 24.73 27.2759 24.8347 27.3268 24.9515C27.3776 25.0681 27.4027 25.1943 27.4002 25.3214C27.3978 25.4486 27.3679 25.5737 27.3127 25.6882C26.8228 26.7084 26.1154 27.609 25.2402 28.3265C25.1414 28.4078 25.0265 28.467 24.903 28.5004C24.7796 28.5338 24.6504 28.5406 24.5242 28.5203C24.3979 28.4999 24.2774 28.453 24.1707 28.3825C24.064 28.312 23.9735 28.2197 23.9052 28.1115L21.5943 24.4382C21.4968 24.2831 21.4497 24.1017 21.4594 23.9188C21.4691 23.7359 21.5351 23.5604 21.6485 23.4165C21.7623 23.2718 21.9177 23.1654 22.0939 23.1118C22.27 23.0581 22.4583 23.0598 22.6335 23.1165ZM26.8493 20.4899L22.6585 21.684C22.4815 21.7342 22.2934 21.7291 22.1193 21.6696C21.9453 21.61 21.7935 21.4988 21.6843 21.3507C21.5761 21.2028 21.5163 21.025 21.5132 20.8418C21.5101 20.6586 21.5637 20.4789 21.6668 20.3274L24.1052 16.7374C24.1767 16.6321 24.2698 16.5432 24.3783 16.4765C24.4867 16.4099 24.6081 16.367 24.7343 16.3507C24.8608 16.3352 24.9891 16.3463 25.1111 16.3831C25.233 16.42 25.346 16.4819 25.4427 16.5649C26.2954 17.3101 26.9725 18.2351 27.4252 19.2732C27.4764 19.3901 27.502 19.5166 27.5001 19.6441C27.4983 19.7717 27.4691 19.8974 27.4145 20.0128C27.3599 20.1281 27.2812 20.2304 27.1837 20.3127C27.0862 20.395 26.9722 20.4554 26.8493 20.4899ZM17.0577 10.3899C16.317 10.5861 15.5959 10.85 14.9035 11.1782C14.7922 11.2315 14.6931 11.307 14.6122 11.4002C14.5314 11.4934 14.4705 11.6022 14.4335 11.7199C14.3969 11.8372 14.3852 11.9609 14.3991 12.083C14.413 12.2051 14.4523 12.323 14.5143 12.429L18.6102 19.4757C18.7092 19.6466 18.8619 19.78 19.0445 19.8552C19.2272 19.9303 19.4295 19.9431 19.6202 19.8915C19.811 19.8422 19.98 19.7307 20.1006 19.5747C20.2211 19.4187 20.2864 19.227 20.286 19.0299V10.8932C20.2867 10.7074 20.2291 10.5261 20.1213 10.3748C20.0135 10.2235 19.861 10.1099 19.6852 10.0499C19.5682 10.0096 19.4443 9.99348 19.321 10.0024C18.556 10.0624 17.7993 10.1924 17.0585 10.3899" fill="#5B7A99"/>
</g>
<defs>
<clipPath id="clip0_1102_2745">
<rect width="20" height="20" fill="white" transform="translate(10 10)"/>
</clipPath>
</defs>
</svg>
