<svg width="40" height="41" viewBox="0 0 40 41" fill="none" xmlns="http://www.w3.org/2000/svg">
<rect x="0.5" y="0.535156" width="39" height="39" rx="19.5" fill="white"/>
<rect x="0.5" y="0.535156" width="39" height="39" rx="19.5" stroke="#DB952E"/>
<path d="M20.0003 17.3281C19.282 17.3281 18.5932 17.6135 18.0852 18.1214C17.5773 18.6293 17.292 19.3182 17.292 20.0365C17.292 20.7548 17.5773 21.4436 18.0852 21.9515C18.5932 22.4594 19.282 22.7448 20.0003 22.7448C20.7186 22.7448 21.4075 22.4594 21.9154 21.9515C22.4233 21.4436 22.7087 20.7548 22.7087 20.0365C22.7087 19.3182 22.4233 18.6293 21.9154 18.1214C21.4075 17.6135 20.7186 17.3281 20.0003 17.3281Z" fill="#DB952E"/>
<path fill-rule="evenodd" clip-rule="evenodd" d="M15.6415 12.604C18.5382 12.2831 21.4615 12.2831 24.3582 12.604C25.9407 12.7806 27.2165 14.0265 27.4024 15.6148C27.7456 18.552 27.7456 21.5192 27.4024 24.4565C27.2165 26.0448 25.9407 27.2906 24.359 27.4681C21.4621 27.7891 18.5385 27.7891 15.6415 27.4681C14.059 27.2906 12.7832 26.0448 12.5974 24.4573C12.254 21.5198 12.254 18.5523 12.5974 15.6148C12.7832 14.0265 14.059 12.7806 15.6415 12.604ZM24.1665 15.0356C23.9455 15.0356 23.7335 15.1234 23.5773 15.2797C23.421 15.436 23.3332 15.6479 23.3332 15.869C23.3332 16.09 23.421 16.3019 23.5773 16.4582C23.7335 16.6145 23.9455 16.7023 24.1665 16.7023C24.3875 16.7023 24.5995 16.6145 24.7558 16.4582C24.9121 16.3019 24.9999 16.09 24.9999 15.869C24.9999 15.6479 24.9121 15.436 24.7558 15.2797C24.5995 15.1234 24.3875 15.0356 24.1665 15.0356ZM16.0415 20.0356C16.0415 18.9858 16.4586 17.979 17.2009 17.2367C17.9432 16.4943 18.95 16.0773 19.9999 16.0773C21.0497 16.0773 22.0565 16.4943 22.7988 17.2367C23.5411 17.979 23.9582 18.9858 23.9582 20.0356C23.9582 21.0854 23.5411 22.0922 22.7988 22.8346C22.0565 23.5769 21.0497 23.994 19.9999 23.994C18.95 23.994 17.9432 23.5769 17.2009 22.8346C16.4586 22.0922 16.0415 21.0854 16.0415 20.0356Z" fill="#DB952E"/>
</svg>
