<svg width="41" height="40" viewBox="0 0 41 40" fill="none" xmlns="http://www.w3.org/2000/svg">
<circle cx="20.7754" cy="20" r="19.5" fill="white" stroke="#DB952E"/>
<path d="M20.4404 11.0391C16.7435 11.0391 13.272 11.3191 11.4235 11.7106C10.192 11.9906 9.12664 12.8306 8.90352 14.1191C8.68039 15.4622 8.45508 17.4791 8.45508 19.9991C8.45508 22.5191 8.6782 24.4791 8.9582 25.8791C9.18352 27.1106 10.2466 28.0075 11.4782 28.2875C13.4404 28.6791 16.7982 28.9591 20.4951 28.9591C24.192 28.9591 27.5498 28.6791 29.5098 28.2875C30.7435 28.0075 31.8066 27.1675 32.0298 25.8791C32.2551 24.4791 32.5351 22.4644 32.5898 19.9444C32.5898 17.4244 32.3098 15.4075 32.0298 14.0075C31.8066 12.7759 30.7435 11.8791 29.5098 11.5991C27.5498 11.3191 24.1351 11.0391 20.4404 11.0391ZM20.4404 12.1591C24.472 12.1591 27.7182 12.4938 29.2866 12.7738C30.1266 12.9991 30.7982 13.5591 30.9098 14.2875C31.2466 16.0791 31.4698 17.9844 31.4698 19.9444C31.4151 22.3506 31.1351 24.3106 30.9098 25.7106C30.7435 26.7737 29.6235 27.1106 29.2866 27.2244C27.2698 27.6159 23.9098 27.8937 20.5498 27.8937C17.1898 27.8937 13.7751 27.6706 11.8151 27.2244C10.9751 26.9991 10.3035 26.4391 10.192 25.7106C9.74352 24.1422 9.57508 22.0706 9.57508 19.9991C9.57508 17.4222 9.80039 15.5191 10.0235 14.3444C10.192 13.2791 11.3666 12.9422 11.6466 12.8306C13.4951 12.4391 16.912 12.1591 20.4404 12.1591ZM17.4151 15.5191V24.4791L25.2551 19.9991L17.4151 15.5191ZM18.5351 17.4244L23.0151 19.9991L18.5351 22.5738V17.4244Z" fill="#DB952E"/>
</svg>
