<?xml version="1.0" encoding="UTF-8"?>
<svg id="Layer_1" data-name="Layer 1" xmlns="http://www.w3.org/2000/svg" viewBox="0 0 316.25 90.22">
  <defs>
    <style>
      .cls-1 {
        fill: #3e5636;
      }

      .cls-2 {
        fill: #dd962c;
      }
    </style>
  </defs>
  <g>
    <path class="cls-1" d="M73.04,53.6c-1.39-2.14-3.42-3.96-5.46-5.46-.28-.09-.14.68-.16.89-.38,3.7-2.71,7.35-6.01,9.09-4.19,2.22-9.82,1.74-14.4,1.25-8.25-.89-16.39-3.14-24.1-6.12-1.96-.75-3.87-1.65-5.86-2.38,0-.16.38-.19.49-.21,6.2-.78,12.46-1.15,18.64-2.03,2.61-2.8,5.46-5.56,8.51-8.25.28-.26.57-.5.85-.75C30.73,31.6,15.92,23.57,1.1,15.55v45.23c0,.39.31.7.7.7h4.93c.94,0,1.72.78,1.72,1.74v8.06c0,.95-.77,1.72-1.72,1.72H1.8c-.39,0-.7.31-.7.7v1.44c0,.39.31.7.7.7h18.68c.96,0,1.72.78,1.72,1.72v8.06c0,.96-.78,1.74-1.74,1.74H1.8c-.39,0-.7.31-.7.7v1.37c0,.39.31.7.7.7h42.39c11.69-.3,25.72-3.46,30.34-15.6,2.33-6.13,2.12-15.29-1.49-20.9ZM13.02,72.99c-.95,0-1.72-.77-1.72-1.72v-8.06c0-.96.78-1.74,1.74-1.74h19.83c.95,0,1.72.77,1.72,1.72v8.08c0,.95-.77,1.72-1.72,1.72H13.02ZM48.34,85.6c0,.96-.78,1.74-1.72,1.74h-19.86c-.94,0-1.72-.78-1.72-1.74v-8.06c0-.95.77-1.72,1.72-1.72h19.86c.95,0,1.72.77,1.72,1.72v8.06Z"/>
    <path class="cls-1" d="M37.47.48h12.56c2.02,0,9.97.22,15.89,6.19,2.53,2.55,3.79,5.26,4.33,6.57,2.19,5.4,1.39,10.2.85,13.22-1.24,6.87-4.66,11.71-6.77,14.21-.16.04-.24-.12-.26-.26-.12-.68.04-1.76,0-2.52-.15-2.53-.77-5.66-3.05-7.13-1.47-.94-3.43-.94-5.09-.62-2.08-3.07-4.16-6.14-6.23-9.2.38-.3.75-.59,1.13-.89-4.45-6.53-8.9-13.06-13.35-19.58Z"/>
    <path class="cls-1" d="M54.74,38.96c4.55-.77,5.08,5.7,1.04,6.08s-4.48-5.5-1.04-6.08Z"/>
    <path class="cls-1" d="M15.76.48c11.75,10.86,23.5,21.72,35.26,32.58,1.46-1.24.99-.84,2.45-2.08-1.84-2.78-3.68-5.57-5.52-8.35-.37.31-.74.61-1.11.92-5.56-7.69-11.12-15.38-16.68-23.07h-14.4Z"/>
  </g>
  <g>
    <path class="cls-1" d="M121.93,26.01c-.36-1.2-.95-2.3-1.76-3.27-.81-.98-1.88-1.8-3.22-2.46-.48-.23-.99-.43-1.55-.6.29-.11.58-.24.85-.39,1.01-.52,1.87-1.19,2.57-1.97.69-.79,1.23-1.74,1.61-2.83.37-1.09.56-2.3.56-3.61,0-1.66-.26-3.11-.78-4.35-.53-1.24-1.29-2.28-2.26-3.11-.98-.83-2.19-1.46-3.62-1.89-1.43-.43-3.04-.66-4.85-.66h-18.36v39.55h19.32c1.47,0,2.8-.14,4.01-.42,1.21-.29,2.25-.67,3.13-1.16.88-.49,1.64-1.07,2.26-1.75s1.13-1.42,1.52-2.23c.4-.81.68-1.66.85-2.54.17-.88.25-1.78.25-2.68,0-1.21-.17-2.41-.53-3.62ZM99.41,7.55h7.4c.95,0,1.77.1,2.49.31.71.21,1.32.5,1.84.9.5.4.88.92,1.13,1.56.25.64.37,1.4.37,2.26s-.12,1.55-.37,2.17c-.24.62-.63,1.13-1.15,1.53-.53.39-1.15.69-1.86.9-.72.21-1.53.31-2.43.31h-7.4V7.55ZM114.07,29.71c-.09.48-.23.91-.42,1.31-.19.39-.43.76-.73,1.1-.31.33-.69.63-1.16.87-.47.24-1,.43-1.59.57-.59.13-1.23.2-1.95.2h-8.82v-10.74h8.82c1.09,0,2.02.14,2.77.4.76.26,1.38.64,1.86,1.13.5.5.84,1.05,1.04,1.7.21.64.32,1.33.32,2.09,0,.45-.05.91-.14,1.38Z"/>
    <path class="cls-1" d="M138.14,39.37c-2.28-1.07-4.26-2.52-5.93-4.35-1.68-1.83-3.01-3.97-4.01-6.44-1-2.47-1.5-5.11-1.5-7.94,0-1.88.23-3.69.68-5.42.45-1.73,1.08-3.35,1.89-4.86.81-1.51,1.79-2.87,2.94-4.1,1.15-1.22,2.41-2.28,3.78-3.16,1.37-.88,2.87-1.57,4.49-2.06,1.62-.49,3.29-.73,5.03-.73,2.56,0,4.97.54,7.23,1.61,2.26,1.07,4.26,2.52,5.99,4.35,1.73,1.83,3.09,3.97,4.07,6.44.98,2.47,1.47,5.11,1.47,7.94,0,1.88-.24,3.69-.71,5.42-.47,1.73-1.1,3.35-1.89,4.86-.79,1.51-1.76,2.87-2.91,4.1-1.15,1.22-2.43,2.28-3.84,3.16-1.41.89-2.9,1.57-4.46,2.06-1.56.49-3.23.73-5,.73-2.6,0-5.04-.54-7.32-1.61ZM148.28,32.77c.87-.32,1.69-.74,2.46-1.27.77-.53,1.46-1.18,2.06-1.95.6-.77,1.12-1.62,1.55-2.54.43-.92.76-1.93.99-3.02.23-1.09.34-2.2.34-3.33,0-1.73-.26-3.36-.79-4.89-.53-1.53-1.24-2.86-2.15-4.01-.9-1.15-1.98-2.05-3.22-2.71-1.24-.66-2.56-.99-3.95-.99-1.02,0-1.96.14-2.82.42-.87.28-1.68.71-2.43,1.27-.75.56-1.45,1.23-2.09,2.01-.64.77-1.17,1.63-1.58,2.57-.41.94-.73,1.95-.96,3.02-.23,1.07-.34,2.17-.34,3.3,0,1.73.25,3.36.76,4.89.51,1.52,1.21,2.86,2.12,4.01.9,1.15,1.98,2.05,3.22,2.71,1.24.66,2.58.99,4.01.99,1.02,0,1.96-.16,2.82-.48Z"/>
    <polygon class="cls-1" points="202.79 .87 202.79 40.42 194.26 40.42 178.17 14.62 178.17 40.42 170.09 40.42 170.09 .87 178.67 .87 194.77 26.68 194.77 .87 202.79 .87"/>
    <polygon class="cls-1" points="243.75 .87 229.57 26.09 229.57 40.42 221.33 40.42 221.33 26.06 207.09 .87 216.91 .87 225.49 18.11 234.04 .87 243.75 .87"/>
    <path class="cls-1" d="M264.25.87h-10.45l-14.4,39.55h9.6l2.69-8.36h14.65l2.82,8.36h9.49L264.25.87ZM253.55,25.68l5.49-16.64,5.58,16.64h-11.06Z"/>
    <polygon class="cls-1" points="315.66 .87 315.66 40.42 307.13 40.42 291.03 14.62 291.03 40.42 282.95 40.42 282.95 .87 291.54 .87 307.64 26.68 307.64 .87 315.66 .87"/>
  </g>
  <rect class="cls-2" x="91.11" y="49.71" width="224.55" height="2.38"/>
  <g>
    <path class="cls-1" d="M117.67,89.62h-5.17c-.24-.9-.43-1.9-.51-2.6-1.65,2.16-4.5,3.13-8.31,3.13-8.49,0-13.11-6.42-13.11-14.52,0-8.69,5.1-15.17,14.38-15.17,7.93,0,12.18,4.52,12.79,9.21h-7.3c-.47-1.59-1.71-3.73-5.57-3.73-5.4,0-6.77,4.69-6.77,9.39s1.62,9.25,6.83,9.25c4.77,0,5.57-3.39,5.57-5.39v-.23h-5.67v-5.63h12.81v16.28Z"/>
    <path class="cls-1" d="M150.37,78.53v11.09h-7.13v-28.7h13.37c6.48,0,9.85,3.54,9.85,7.93,0,3.91-2.17,5.95-4.11,6.8,1.41.55,3.5,2.13,3.5,7.2v1.37c0,1.87.05,4.06.4,5.4h-6.94c-.5-1.25-.62-3.36-.62-6.42v-.5c0-2.77-.67-4.17-4.9-4.17h-3.43ZM150.37,73.01h4.6c3.04,0,4.16-1.19,4.16-3.31s-1.35-3.26-4.09-3.26h-4.67v6.57Z"/>
    <path class="cls-1" d="M218.27,75.21c0,8.05-4.88,14.87-14.42,14.87s-14.01-6.62-14.01-14.8,5.24-14.81,14.43-14.81c8.66,0,14,5.99,14,14.74ZM197.39,75.15c0,5.4,2.11,9.26,6.72,9.26,4.95,0,6.63-4.24,6.63-9.12,0-5.25-1.87-9.15-6.75-9.15-4.61,0-6.6,3.6-6.6,9.02Z"/>
    <path class="cls-1" d="M249.94,60.92v17.26c0,4.84,2.42,6.36,5.24,6.36,3.17,0,5.06-1.84,5.06-6.36v-17.26h7.33v16.75c0,9.79-5.8,12.4-12.5,12.4s-12.46-2.72-12.46-12.34v-16.82h7.33Z"/>
    <path class="cls-1" d="M293.33,60.92h12.51c6.3,0,10.56,3.54,10.56,9.08,0,6.41-4.9,9.29-10.71,9.29h-5.07v10.34h-7.29v-28.7ZM300.62,73.75h4c2.54,0,4.47-.94,4.47-3.63s-1.96-3.66-4.37-3.66h-4.09v7.29Z"/>
  </g>
</svg>